<svg width="79" height="34" viewBox="0 0 79 34" fill="none" xmlns="http://www.w3.org/2000/svg">
<g clip-path="url(#clip0_23_31932)">
<path d="M10.8117 26.9618C9.62893 27.1695 8.4253 27.2318 7.18021 27.3977L3.38251 16.2747V27.875C2.1997 27.9995 1.12062 28.1655 0 28.3315V7.08154H3.15438L7.4707 19.1386V7.08154H10.8117V26.9618ZM17.3486 14.8635C18.6354 14.8635 20.6068 14.8013 21.7896 14.8013V18.1215C20.3161 18.1215 18.5938 18.1215 17.3486 18.1838V23.1228C19.2994 22.9983 21.2501 22.8322 23.2214 22.7699V25.9655L14.0282 26.692V7.08154H23.2214V10.4019H17.3486V14.8635ZM35.5688 10.4019H32.124V25.6753C31.0034 25.6753 29.8828 25.6754 28.8039 25.7167V10.4019H25.3591V7.08154H35.569L35.5688 10.4019ZM40.9643 14.6353H45.509V17.9556H40.9643V25.4886H37.706V7.08154H46.9824V10.4019H40.9643V14.6353ZM52.3779 22.5832C54.2664 22.6246 56.1754 22.7701 58.0224 22.8737V26.1526C55.055 25.9657 52.0874 25.7792 49.0576 25.7167V7.08154H52.3779V22.5832ZM60.8239 26.3809C61.8823 26.4432 63.0029 26.5055 64.0819 26.6298V7.08154H60.8239V26.3809ZM78.6292 7.08154L74.4165 17.1878L78.6292 28.3315C77.3839 28.1655 76.1389 27.9372 74.8937 27.7297L72.5073 21.5872L70.0796 27.2318C68.8757 27.0241 67.7136 26.9618 66.5102 26.7958L70.7851 17.0632L66.9251 7.08154H70.4943L72.6733 12.6638L74.9976 7.08154H78.6292V7.08154Z" fill="#4C4C4D"/>
</g>
<defs>
<clipPath id="clip0_23_31932">
<rect width="78.625" height="34" fill="white"/>
</clipPath>
</defs>
</svg>
